PathFileType	4	(X/Y/Z)	/Users/visionmauri/Downloads/Videos/OAW05-top_Sports2D/OAW05-top_Sports2D_m_person00.trc
DataRate	CameraRate	NumFrames	NumMarkers	Units	OrigDataRate	OrigDataStartFrame	OrigNumFrames
28.0	28.0	11	22	m	28.0	997	1995
Frame#	Time	Hip			RHip			RKnee			RAnkle			RBigToe			RSmallToe			RHeel			LHip			LKnee			LAnkle			LBigToe			LSmallToe			LHeel			Neck			Head			Nose			RShoulder			RElbow			RWrist			LShoulder			LElbow			LWrist			
		X1	Y1	Z1	X2	Y2	Z2	X3	Y3	Z3	X4	Y4	Z4	X5	Y5	Z5	X6	Y6	Z6	X7	Y7	Z7	X8	Y8	Z8	X9	Y9	Z9	X10	Y10	Z10	X11	Y11	Z11	X12	Y12	Z12	X13	Y13	Z13	X14	Y14	Z14	X15	Y15	Z15	X16	Y16	Z16	X17	Y17	Z17	X18	Y18	Z18	X19	Y19	Z19	X20	Y20	Z20	X21	Y21	Z21	X22	Y22	Z22
1184	42.30510250867885	5.0557916838762695	0.24786856684831685	0.0301	5.0720891495516565	0.18643434640109371	0.0301	4.819309835192001	0.10738944252711705	0.129	4.575126953266645	0.037259643069418265	0.023	4.4756894870164015	0.02302147203633469	0.2179	4.4905396232239445	-0.027678356702131778	0.1804	4.524600702081474	0.02535662416493625	-0.0119	5.030753943327115	0.2983862130232653	0.0301	4.805595727470157	0.21922751606722257	0.129	4.614738284079897	0.14084056305482837	0.023	4.587393558952514	0.13575703517420906	0.2179	4.561926116977537	0.1594554244342662	0.1804	4.577111866470787	0.12055468718330511	-0.0119	5.394580065443682	0.36252497873905826	0.0008	5.507273219153555	0.401067288469662	0.0655	5.408216837623358	0.3532501673576804	0.1076	5.405530123093559	0.25029086479266516	-0.01275	5.2332378194543	0.1458803515800858	0.0702	5.088949688902511	0.09823233413186207	0.1076	5.331517463437857	0.4512145420738225	-0.01275	5.130467623338655	0.4191965169608858	0.0702	4.9555652986718925	0.38755189414758795	0.1076
1185	42.34083316958145	5.056542276576625	0.2537555560923316	0.0301	5.07413962882599	0.19399883364986267	0.0301	4.8249471023749955	0.11543189123726956	0.129	4.584069478156326	0.040405635630079324	0.023	4.478578364683884	0.02444833124917143	0.2179	4.4964624920914735	-0.02679890281796752	0.1804	4.528901653206146	0.02911528959165605	-0.0119	5.033480601679563	0.3041121811351812	0.0301	4.804235392845893	0.2180044541356375	0.129	4.614472920711973	0.14112805870827871	0.023	4.580131245788435	0.12813634120974696	0.2179	4.555091090900458	0.15644254988475453	0.1804	4.575275183516611	0.12083825693309536	-0.0119	5.391068453182757	0.36876381578460876	0.0008	5.498108228498556	0.40413688650084273	0.0655	5.4049091652175045	0.3558195334728484	0.1076	5.404479698913671	0.259340481434235	-0.01275	5.232744907959175	0.15332578567292077	0.0702	5.086774646384004	0.09997171507930283	0.1076	5.331583686225435	0.45595504396367653	-0.01275	5.132865880566395	0.42315407036897223	0.0702	4.959359486234829	0.39259800673200795	0.1076
1186	42.37656383048405	5.058477788498552	0.25834767677767945	0.0301	5.077417408530971	0.20112329095053047	0.0301	4.830746778168711	0.12391970103907536	0.129	4.603529146910247	0.04714492338100886	0.023	4.488637313599224	0.028483831405113604	0.2179	4.509706873201852	-0.021836906535577967	0.1804	4.5443256344438145	0.03562762681729147	-0.0119	5.038187663541262	0.30911648355092075	0.0301	4.802916746837902	0.21808878648614663	0.129	4.613567745689282	0.14308757394818894	0.023	4.5761587278634055	0.12436855714677032	0.2179	4.55036810904111	0.15660493004838932	0.1804	4.5722941324415975	0.12278650187088173	-0.0119	5.3898139258630025	0.3744352443123825	0.0008	5.497149300712418	0.4058396572569567	0.0655	5.40936204464855	0.35841423130694267	0.1076	5.404983672571688	0.26683464951845715	-0.01275	5.234360202549695	0.16087861800785289	0.0702	5.086742647421692	0.1009762308774859	0.1076	5.333289909573768	0.4599259017403887	-0.01275	5.13716949190154	0.4270653129762883	0.0702	4.965279261444406	0.39767389713818124	0.1076
1187	42.41229449138665	5.063296447465972	0.26390804196714496	0.0301	5.081863513528674	0.2077787285807765	0.0301	4.840640736525225	0.1342869565480998	0.129	4.637720436126298	0.06053068556122624	0.023	4.505101937428288	0.03616534745811531	0.2179	4.528946238136334	-0.012323977484013423	0.1804	4.577261718006384	0.04941919255287792	-0.0119	5.043846299876344	0.3146108465560424	0.0301	4.806464889035125	0.22076349341970986	0.129	4.612889225553564	0.14513072005828317	0.023	4.575055676132252	0.12343245024342228	0.2179	4.548620562643171	0.15894293303864004	0.1804	4.570448874550892	0.12499904612736254	-0.0119	5.392351324918125	0.37929968649819645	0.0008	5.509777515849438	0.4109482386649046	0.0655	5.423650945171636	0.3639468607724608	0.1076	5.406785520852399	0.27123199662464875	-0.01275	5.236240712697438	0.16766793947269845	0.0702	5.085539922533291	0.10148901653082638	0.1076	5.335243583041577	0.4641161854839057	-0.01275	5.140823253054757	0.43132039253083615	0.0702	4.971135819877236	0.4015303877107677	0.1076
1188	42.448025152289254	5.071353286142294	0.2705675965677462	0.0301	5.087583773546618	0.21463923748549588	0.0301	4.853593403231703	0.14482572830308652	0.129	4.672462188437778	0.07636940095685466	0.023	4.525281338603265	0.04823864557141069	0.2179	4.5509869920456065	0.000659269435425328	0.1804	4.61419822930512	0.06683294000429163	-0.0119	5.050330021173919	0.3203097210670497	0.0301	4.813908858188552	0.22604832718052772	0.129	4.614400399254575	0.14700732639814615	0.023	4.574432203037876	0.12350618268981381	0.2179	4.548497904956032	0.1601451679889377	0.1804	4.571762379100349	0.1261750600003192	-0.0119	5.398785139779835	0.3838145368321539	0.0008	5.522593079206709	0.4166117059635971	0.0655	5.438459498706085	0.3705366121601853	0.1076	5.409911281873064	0.27394865313196826	-0.01275	5.238230046029893	0.17282313238708913	0.0702	5.083710058191745	0.10232179518803419	0.1076	5.338579601945267	0.4683255556829459	-0.01275	5.144712987179607	0.4352440830806682	0.0702	4.977443273407688	0.4036651361856471	0.1076
1189	42.483755813191856	5.079943931302262	0.27619108891473687	0.0301	5.094311705496553	0.2216561496914865	0.0301	4.863803998981239	0.15225365173129363	0.129	4.690192675769428	0.0867015916459632	0.023	4.5445064656344165	0.06232465741595168	0.2179	4.571546418769842	0.01335465341766831	0.1804	4.635702703513307	0.0790882489338045	-0.0119	5.05748891504362	0.32487187231947745	0.0301	4.820618814365492	0.23229013586026076	0.129	4.618145779046929	0.14869369880630814	0.023	4.572992235719797	0.12404610424573694	0.2179	4.548848741604969	0.15974158651132417	0.1804	4.575525520366562	0.12630775791302126	-0.0119	5.405748888500313	0.3877888421948994	0.0008	5.522909528990188	0.4178766018822439	0.0655	5.44130947061734	0.3713666430427886	0.1076	5.414895729978169	0.2780498068337344	-0.01275	5.242321411398425	0.1768832559511567	0.0702	5.084308970266804	0.10413163131585303	0.1076	5.345281809939878	0.4722999368713521	-0.01275	5.151960556816478	0.43839036710816	0.0702	4.985773919879829	0.404932469293063	0.1076
1190	42.51948647409445	5.086782576798033	0.27992550091118096	0.0301	5.100983989213935	0.22752457125414505	0.0301	4.8692121602256435	0.15626099036811164	0.129	4.691608761380076	0.08976733132064854	0.023	4.559920078039958	0.07359316157469954	0.2179	4.588317958543868	0.02234231283315863	0.1804	4.641356800309804	0.08357344010256772	-0.0119	5.064406540105035	0.3288956189319972	0.0301	4.825592372177036	0.23828319987647306	0.129	4.621724364780465	0.15019497985685773	0.023	4.57177845436156	0.1241489871047969	0.2179	4.54891417220098	0.1595061186268313	0.1804	4.579128656467604	0.1264615957183532	-0.0119	5.410920461955567	0.3906380745590398	0.0008	5.521347911761501	0.41816377462045123	0.0655	5.436376791414361	0.3670488823401772	0.1076	5.42149083560797	0.2838195311130355	-0.01275	5.248753045286508	0.1810030864884851	0.0702	5.088542177591108	0.10747301117672914	0.1076	5.354364145612747	0.476447455105132	-0.01275	5.162078151674014	0.4415191185507355	0.0702	4.996074448172811	0.40599211467593155	0.1076
1191	42.55521713499705	5.092401769683639	0.282530173561586	0.0301	5.106962304443998	0.23122385908476842	0.0301	4.8728505250776815	0.1586340779482788	0.129	4.687330027472294	0.08948875209266434	0.023	4.573304153762337	0.0784533617233805	0.2179	4.601793685295851	0.026718502507625096	0.1804	4.641100644016335	0.08330739487325142	-0.0119	5.070456291870303	0.3333720773908751	0.0301	4.830049536725033	0.2436258505384599	0.129	4.623670326897537	0.15186274456547083	0.023	4.5724098570090685	0.12207322434787606	0.2179	4.548886749891116	0.158867901615987	0.1804	4.581109463612181	0.12759084076576788	-0.0119	5.415746317057345	0.3928781989292216	0.0008	5.532574245654497	0.4236726545744331	0.0655	5.4340993212262205	0.3658279968323806	0.1076	5.427814124004404	0.28832259425206846	-0.01275	5.254623103221489	0.1853418145366882	0.0702	5.093818643838561	0.11209015375460916	0.1076	5.362245113057634	0.4804253798071708	-0.01275	5.1706168543520965	0.44475040613376643	0.0702	5.007273552588244	0.4064392053009949	0.1076
1192	42.59094779589965	5.0979885647561645	0.284423624721565	0.0301	5.112640633090423	0.23340941131593534	0.0301	4.877366696419417	0.1600319119005917	0.129	4.683900822421155	0.08848569926327389	0.023	4.588259253404782	0.07751774620093801	0.2179	4.613551236937326	0.027727741861306502	0.1804	4.640139615146814	0.08087359952483374	-0.0119	5.075845645394492	0.3372612050112343	0.0301	4.833207424213898	0.2475747399463548	0.129	4.624863446972725	0.15366893653917527	0.023	4.574589907416193	0.11716421162061633	0.2179	4.550080938307107	0.15526721909302127	0.1804	4.5820665927333595	0.13003462717304207	-0.0119	5.421768202023158	0.3953887895704385	0.0008	5.549141991429581	0.43163985077236317	0.0655	5.436069947763105	0.3711334832742527	0.1076	5.432056353636313	0.28998876290609926	-0.01275	5.257819383563847	0.18896599142193624	0.0702	5.09734984685933	0.11678941175143802	0.1076	5.366784480387434	0.48303915439442613	-0.01275	5.174829379856736	0.4467056716731275	0.0702	5.017988092951557	0.4049764543444397	0.1076
1193	42.62667845680225	5.1040699794007836	0.28623152749314495	0.0301	5.118519884650675	0.2352175573279892	0.0301	4.884055875683475	0.16058386883661088	0.129	4.6861878287691106	0.08803965599436667	0.023	4.607848241670314	0.0767259016690441	0.2179	4.627614218354656	0.02952716491347323	0.1804	4.643860751307462	0.07959330391767107	-0.0119	5.081013191173785	0.3397616511837315	0.0301	4.834925032826049	0.2501178254529811	0.129	4.625973643393909	0.15495630344744782	0.023	4.576145343242034	0.11133339118362204	0.2179	4.552451764043901	0.1489699369192004	0.1804	4.5828569035329005	0.13301614291295588	-0.0119	5.426497750452861	0.39680598202946654	0.0008	5.554754503262212	0.43264504854575225	0.0655	5.440945650824683	0.37529826229032553	0.1076	5.433813518797317	0.28999976574504094	-0.01275	5.259501711410553	0.19117160707307157	0.0702	5.09928117433837	0.12052235671590962	0.1076	5.368651810054561	0.48344448617582153	-0.01275	5.176359969515624	0.4466015657075736	0.0702	5.026545757249274	0.4004850010067245	0.1076
1194	42.662409117704854	5.11017297853873	0.2890856585781994	0.0301	5.123642546405775	0.23680625459800766	0.0301	4.894179187798145	0.16140098402735473	0.129	4.697466881794619	0.09082904218349457	0.023	4.63363499888898	0.08312532248744114	0.2179	4.648826046698403	0.03719067582676795	0.1804	4.65731345217137	0.08379234926557863	-0.0119	5.085760623991389	0.3417012302479542	0.0301	4.837804392158744	0.25245215318827735	0.129	4.626756054690401	0.15496905035320124	0.023	4.575760026307535	0.10800649176077362	0.2179	4.553767729536037	0.14420611424752475	0.1804	4.583700790637244	0.1345269638517226	-0.0119	5.425518133627045	0.394627228213466	0.0008	5.547764867274431	0.4226621013149807	0.0655	5.44560393219067	0.3694400463446071	0.1076	5.433585094428177	0.2896473500044057	-0.01275	5.261261279858865	0.19221465317239322	0.0702	5.1002293613603555	0.12295308654301759	0.1076	5.369258109245188	0.4819030303540139	-0.01275	5.177853223849846	0.4452735544746733	0.0702	5.03252616307629	0.39353038823406533	0.1076
